<svg xmlns="http://www.w3.org/2000/svg" width="2048" height="1152" viewBox="0 0 2048 1152">
  <defs>
    <filter id="wob" x="-5%" y="-5%" width="110%" height="110%">
      <feTurbulence type="fractalNoise" baseFrequency="0.018" numOctaves="2" seed="203" result="n"/>
      <feDisplacementMap in="SourceGraphic" in2="n" scale="1.6" xChannelSelector="R" yChannelSelector="G"/>
    </filter>
    <filter id="grain" x="0" y="0" width="100%" height="100%">
      <feTurbulence type="fractalNoise" baseFrequency="0.85" numOctaves="2" seed="210" result="t"/>
      <feColorMatrix in="t" type="matrix" values="0 0 0 0 0.12  0 0 0 0 0.10  0 0 0 0 0.08  0 0 0 0.55 0" result="g"/>
      <feComposite in="g" in2="SourceGraphic" operator="in" result="gi"/>
      <feBlend in="SourceGraphic" in2="gi" mode="multiply"/>
    </filter>
    <filter id="soft"><feGaussianBlur stdDeviation="6"/></filter>
    <filter id="softer"><feGaussianBlur stdDeviation="14"/></filter>
    <filter id="blurfar"><feGaussianBlur stdDeviation="2.2"/></filter>
  </defs><g filter="url(#grain)"><g filter="url(#wob)">
    <rect x="0" y="930" width="2048" height="222" fill="#3E3B3A"/>
    <rect x="430" y="250" width="1200" height="690" fill="#D8C9B2"/>
    <line x1="430" y1="280" x2="1630" y2="280" stroke="#C3B39B" stroke-width="3"/><line x1="430" y1="334" x2="1630" y2="334" stroke="#C3B39B" stroke-width="3"/><line x1="430" y1="388" x2="1630" y2="388" stroke="#C3B39B" stroke-width="3"/><line x1="430" y1="442" x2="1630" y2="442" stroke="#C3B39B" stroke-width="3"/><line x1="430" y1="496" x2="1630" y2="496" stroke="#C3B39B" stroke-width="3"/><line x1="430" y1="550" x2="1630" y2="550" stroke="#C3B39B" stroke-width="3"/><line x1="430" y1="604" x2="1630" y2="604" stroke="#C3B39B" stroke-width="3"/><line x1="430" y1="658" x2="1630" y2="658" stroke="#C3B39B" stroke-width="3"/><line x1="430" y1="712" x2="1630" y2="712" stroke="#C3B39B" stroke-width="3"/><line x1="430" y1="766" x2="1630" y2="766" stroke="#C3B39B" stroke-width="3"/><line x1="430" y1="820" x2="1630" y2="820" stroke="#C3B39B" stroke-width="3"/><line x1="430" y1="874" x2="1630" y2="874" stroke="#C3B39B" stroke-width="3"/>
    <path d="M400 250 L1660 250 L1630 200 L430 200Z" fill="#6B4E3B"/>
    <rect x="700" y="300" width="660" height="110" rx="10" fill="#2E3A32"/>
    <text x="1030" y="372" text-anchor="middle" font-family="Georgia, serif" font-size="52" letter-spacing="6" fill="#F3EBDD">LILY'S FLOWERS</text>
    <rect x="470" y="520" width="1120" height="80" fill="#6F8F72"/><circle cx="507" cy="600" r="37" fill="#587659"/><circle cx="581" cy="600" r="37" fill="#6F8F72"/><circle cx="655" cy="600" r="37" fill="#587659"/><circle cx="729" cy="600" r="37" fill="#6F8F72"/><circle cx="803" cy="600" r="37" fill="#587659"/><circle cx="877" cy="600" r="37" fill="#6F8F72"/><circle cx="951" cy="600" r="37" fill="#587659"/><circle cx="1025" cy="600" r="37" fill="#6F8F72"/><circle cx="1099" cy="600" r="37" fill="#587659"/><circle cx="1173" cy="600" r="37" fill="#6F8F72"/><circle cx="1247" cy="600" r="37" fill="#587659"/><circle cx="1321" cy="600" r="37" fill="#6F8F72"/><circle cx="1395" cy="600" r="37" fill="#587659"/><circle cx="1469" cy="600" r="37" fill="#6F8F72"/><circle cx="1543" cy="600" r="37" fill="#587659"/><circle cx="1617" cy="600" r="37" fill="#6F8F72"/>
    <rect x="500" y="640" width="200" height="290" fill="#4A3A30"/><circle cx="680" cy="790" r="8" fill="#F2C877"/>
    <rect x="760" y="650" width="800" height="210" fill="#F2C877" opacity="0.85"/>
    <rect x="760" y="650" width="800" height="210" fill="none" stroke="#6B4E3B" stroke-width="14"/>
    <ellipse cx="800" cy="820" rx="26" ry="40" fill="#587659" opacity="0.7"/><ellipse cx="876" cy="800" rx="26" ry="40" fill="#587659" opacity="0.7"/><ellipse cx="952" cy="780" rx="26" ry="40" fill="#587659" opacity="0.7"/><ellipse cx="1028" cy="820" rx="26" ry="40" fill="#587659" opacity="0.7"/><ellipse cx="1104" cy="800" rx="26" ry="40" fill="#587659" opacity="0.7"/><ellipse cx="1180" cy="780" rx="26" ry="40" fill="#587659" opacity="0.7"/><ellipse cx="1256" cy="820" rx="26" ry="40" fill="#587659" opacity="0.7"/><ellipse cx="1332" cy="800" rx="26" ry="40" fill="#587659" opacity="0.7"/><ellipse cx="1408" cy="780" rx="26" ry="40" fill="#587659" opacity="0.7"/><ellipse cx="1484" cy="820" rx="26" ry="40" fill="#587659" opacity="0.7"/>
    <circle cx="1460" cy="712" r="40" fill="#5E4A3C"/><circle cx="1460" cy="712" r="34" fill="#F3EBDD"/>
    <line x1="1460" y1="712" x2="1458.1" y2="695.1" stroke="#20262B" stroke-width="3.4" stroke-linecap="round"/><line x1="1460" y1="712" x2="1434.1" y2="706.5" stroke="#20262B" stroke-width="2.4285714285714284" stroke-linecap="round"/><circle cx="1460" cy="712" r="2.4285714285714284" fill="#20262B"/>
    <path d="M500 640 Q600 690 700 640" stroke="#6F8F72" stroke-width="16" fill="none"/>
    <circle cx="520" cy="650" r="10" fill="#D9776B"/><circle cx="552" cy="667.6335575687742" r="10" fill="#F3EBDD"/><circle cx="584" cy="678.5316954888546" r="10" fill="#F2C877"/><circle cx="616" cy="678.5316954888547" r="10" fill="#D9776B"/><circle cx="648" cy="667.6335575687742" r="10" fill="#F3EBDD"/><circle cx="680" cy="650" r="10" fill="#F2C877"/>
    <path d="M560 870 L630 870 L622 930 L568 930Z" fill="#5A6670"/><circle cx="585.6983005348593" cy="855.3007111907937" r="13.229482501279563" fill="#D9776B"/><circle cx="575.4078222834505" cy="850.3138554655015" r="15.558458857936785" fill="#F3EBDD"/><circle cx="619.1084709065035" cy="863.6034278268926" r="14.79759959410876" fill="#E6A9A0"/><circle cx="576.4472374855541" cy="869.8674243176356" r="12.92405859590508" fill="#F2C877"/><circle cx="618.1468876823783" cy="846.0137456213124" r="15.502059037331492" fill="#B7A4D0"/><circle cx="579.9945406545885" cy="854.751886529848" r="12.834689065581188" fill="#D9776B"/><circle cx="589.9722639052197" cy="866.6281407116912" r="13.166694505140185" fill="#F3EBDD"/><path d="M670 870 L740 870 L732 930 L678 930Z" fill="#5A6670"/><circle cx="713.5150833125226" cy="843.51250521373" r="14.303820529254153" fill="#F3EBDD"/><circle cx="710.4679663386196" cy="842.0839136489667" r="13.241430913563818" fill="#E6A9A0"/><circle cx="719.7173967794515" cy="847.0066291093826" r="12.066722384421155" fill="#F2C877"/><circle cx="702.5726848701015" cy="846.0520826163702" r="15.983175457455218" fill="#B7A4D0"/><circle cx="693.0866051069461" cy="865.9014228405431" r="11.489282362395898" fill="#D9776B"/><circle cx="719.0460689552128" cy="851.8386445683427" r="13.822026640642434" fill="#F3EBDD"/><circle cx="680.7435521227308" cy="853.7402922380716" r="15.503269208362326" fill="#E6A9A0"/><path d="M780 870 L850 870 L842 930 L788 930Z" fill="#5A6670"/><circle cx="793.593891649507" cy="860.580776554998" r="13.362874541431665" fill="#E6A9A0"/><circle cx="839.2641640710644" cy="866.7022723099217" r="13.816451928811148" fill="#F2C877"/><circle cx="798.2714424002916" cy="860.6788463727571" r="14.97344211814925" fill="#B7A4D0"/><circle cx="839.2205224581994" cy="841.1688798107207" r="13.791496504796669" fill="#D9776B"/><circle cx="808.999865395017" cy="847.6500235567801" r="13.090481421910226" fill="#F3EBDD"/><circle cx="837.6914498372935" cy="853.4062917390838" r="11.806506281951442" fill="#E6A9A0"/><circle cx="800.4930508881807" cy="844.3998286058195" r="11.298690146300942" fill="#F2C877"/><path d="M890 870 L960 870 L952 930 L898 930Z" fill="#5A6670"/><circle cx="933.9611143921502" cy="861.4421954657882" r="13.91495506069623" fill="#F2C877"/><circle cx="917.5274525536224" cy="866.8591302051209" r="14.46445300616324" fill="#B7A4D0"/><circle cx="948.2042373041622" cy="851.9412655709311" r="13.026082222582772" fill="#D9776B"/><circle cx="906.9188445340842" cy="840.900897087995" r="14.801239000167698" fill="#F3EBDD"/><circle cx="935.2709400118329" cy="853.9359568431973" r="11.941077041206881" fill="#E6A9A0"/><circle cx="924.423547484912" cy="850.3084330516867" r="11.267899674363434" fill="#F2C877"/><circle cx="918.8580965972506" cy="861.0251622693613" r="15.218074638629332" fill="#B7A4D0"/><path d="M1000 870 L1070 870 L1062 930 L1008 930Z" fill="#5A6670"/><circle cx="1028.6820435337722" cy="864.1898705181666" r="11.217715066391975" fill="#B7A4D0"/><circle cx="1043.5122596588917" cy="843.4872692171484" r="13.312618860742077" fill="#D9776B"/><circle cx="1040.8951657032594" cy="862.4973699054681" r="11.287323072552681" fill="#F3EBDD"/><circle cx="1036.1768061551265" cy="846.0412563895807" r="12.56231765751727" fill="#E6A9A0"/><circle cx="1039.792187968269" cy="842.0887689501978" r="15.203144542407244" fill="#F2C877"/><circle cx="1013.497902827803" cy="845.1047085039318" r="14.667424366576597" fill="#B7A4D0"/><circle cx="1017.2411577450112" cy="869.9393479968421" r="11.05108046811074" fill="#D9776B"/><path d="M1110 870 L1180 870 L1172 930 L1118 930Z" fill="#5A6670"/><circle cx="1128.965218940284" cy="865.7159850234166" r="12.175523611018434" fill="#D9776B"/><circle cx="1166.18970323354" cy="856.5469241444953" r="13.665609198156744" fill="#F3EBDD"/><circle cx="1163.3090171893127" cy="842.18426364474" r="12.4208833349403" fill="#E6A9A0"/><circle cx="1140.1343136606738" cy="858.1496590166353" r="15.709450667724013" fill="#F2C877"/><circle cx="1165.5303317750804" cy="862.38078861963" r="14.20985481259413" fill="#B7A4D0"/><circle cx="1167.62273109518" cy="862.9677617945708" r="12.797191200312227" fill="#D9776B"/><circle cx="1128.6303957388736" cy="852.7623883634806" r="14.59546027961187" fill="#F3EBDD"/><path d="M1220 870 L1290 870 L1282 930 L1228 930Z" fill="#5A6670"/><circle cx="1277.0226081321016" cy="851.1626910301857" r="15.228176497854292" fill="#F3EBDD"/><circle cx="1246.6543078026734" cy="854.0991861792281" r="15.159503147238865" fill="#E6A9A0"/><circle cx="1261.5649763680995" cy="842.4555056286044" r="15.598081998992711" fill="#F2C877"/><circle cx="1266.1971320700832" cy="865.8374122995883" r="13.631668573012576" fill="#B7A4D0"/><circle cx="1273.118336214684" cy="846.2346872664057" r="14.31735884770751" fill="#D9776B"/><circle cx="1259.1632020729594" cy="864.4403348257765" r="15.234652473824099" fill="#F3EBDD"/><circle cx="1240.8933192212135" cy="848.3880533860065" r="12.940730276983231" fill="#E6A9A0"/><path d="M1330 870 L1400 870 L1392 930 L1338 930Z" fill="#5A6670"/><circle cx="1342.4463537731208" cy="857.2905615158379" r="14.164864879800007" fill="#E6A9A0"/><circle cx="1368.943889704533" cy="863.8883017818443" r="14.76757727470249" fill="#F2C877"/><circle cx="1367.4351402535103" cy="863.180323750712" r="11.912198839941993" fill="#B7A4D0"/><circle cx="1379.5439431071281" cy="866.2222746689804" r="12.470903961453587" fill="#D9776B"/><circle cx="1365.9677839581855" cy="862.4378383811563" r="11.002238902961835" fill="#F3EBDD"/><circle cx="1368.9029241306707" cy="840.95520199975" r="15.115112172439694" fill="#E6A9A0"/><circle cx="1372.6917004655115" cy="848.7124525336549" r="13.022603509249166" fill="#F2C877"/><path d="M1440 870 L1510 870 L1502 930 L1448 930Z" fill="#5A6670"/><circle cx="1452.8657283168286" cy="862.9379806690849" r="15.892541298177093" fill="#F2C877"/><circle cx="1484.8468809039332" cy="849.7440108284354" r="13.78437344240956" fill="#B7A4D0"/><circle cx="1453.8456663722172" cy="851.7729681241326" r="13.80814350116998" fill="#D9776B"/><circle cx="1462.416248244699" cy="850.4477438377216" r="13.982253801310435" fill="#F3EBDD"/><circle cx="1471.8896611593664" cy="840.026815768797" r="11.433265988249332" fill="#E6A9A0"/><circle cx="1482.4943058309145" cy="867.7299609873444" r="11.065749766072258" fill="#F2C877"/><circle cx="1483.0971129005775" cy="860.1925394288264" r="13.29580108076334" fill="#B7A4D0"/>
    <rect x="1700" y="420" width="16" height="520" fill="#1A2025"/>
    <path d="M1680 420 L1736 420 L1726 360 L1690 360Z" fill="#F2C877"/>
    <circle cx="1708" cy="390" r="70" fill="#F2C877" opacity="0.2" filter="url(#softer)"/></g></g></svg>