<svg xmlns="http://www.w3.org/2000/svg" width="2048" height="1152" viewBox="0 0 2048 1152">
  <defs>
    <filter id="wob" x="-5%" y="-5%" width="110%" height="110%">
      <feTurbulence type="fractalNoise" baseFrequency="0.018" numOctaves="2" seed="243" result="n"/>
      <feDisplacementMap in="SourceGraphic" in2="n" scale="1.6" xChannelSelector="R" yChannelSelector="G"/>
    </filter>
    <filter id="grain" x="0" y="0" width="100%" height="100%">
      <feTurbulence type="fractalNoise" baseFrequency="0.85" numOctaves="2" seed="250" result="t"/>
      <feColorMatrix in="t" type="matrix" values="0 0 0 0 0.12  0 0 0 0 0.10  0 0 0 0 0.08  0 0 0 0.55 0" result="g"/>
      <feComposite in="g" in2="SourceGraphic" operator="in" result="gi"/>
      <feBlend in="SourceGraphic" in2="gi" mode="multiply"/>
    </filter>
    <filter id="soft"><feGaussianBlur stdDeviation="6"/></filter>
    <filter id="softer"><feGaussianBlur stdDeviation="14"/></filter>
    <filter id="blurfar"><feGaussianBlur stdDeviation="2.2"/></filter>
  </defs><g filter="url(#grain)"><g filter="url(#wob)">
    <rect x="0" y="930" width="2048" height="222" fill="#3B3734"/>
    <clipPath id="wall"><path d="M0 520 L700 520 L700 930 L0 930Z M1350 520 L2048 520 L2048 930 L1350 930Z"/></clipPath>
    <rect x="0" y="520" width="2048" height="410" fill="#4A4B4D" clip-path="url(#wall)"/>
    <g clip-path="url(#wall)"><rect x="0" y="520" width="112" height="40" rx="6" fill="#57585A"/><rect x="120" y="520" width="112" height="40" rx="6" fill="#57585A"/><rect x="240" y="520" width="112" height="40" rx="6" fill="#57585A"/><rect x="360" y="520" width="112" height="40" rx="6" fill="#57585A"/><rect x="480" y="520" width="112" height="40" rx="6" fill="#57585A"/><rect x="600" y="520" width="112" height="40" rx="6" fill="#57585A"/><rect x="720" y="520" width="112" height="40" rx="6" fill="#57585A"/><rect x="840" y="520" width="112" height="40" rx="6" fill="#57585A"/><rect x="960" y="520" width="112" height="40" rx="6" fill="#57585A"/><rect x="1080" y="520" width="112" height="40" rx="6" fill="#57585A"/><rect x="1200" y="520" width="112" height="40" rx="6" fill="#57585A"/><rect x="1320" y="520" width="112" height="40" rx="6" fill="#57585A"/><rect x="1440" y="520" width="112" height="40" rx="6" fill="#57585A"/><rect x="1560" y="520" width="112" height="40" rx="6" fill="#57585A"/><rect x="1680" y="520" width="112" height="40" rx="6" fill="#57585A"/><rect x="1800" y="520" width="112" height="40" rx="6" fill="#57585A"/><rect x="1920" y="520" width="112" height="40" rx="6" fill="#57585A"/><rect x="2040" y="520" width="112" height="40" rx="6" fill="#57585A"/><rect x="0" y="566" width="112" height="40" rx="6" fill="#57585A"/><rect x="120" y="566" width="112" height="40" rx="6" fill="#57585A"/><rect x="240" y="566" width="112" height="40" rx="6" fill="#57585A"/><rect x="360" y="566" width="112" height="40" rx="6" fill="#57585A"/><rect x="480" y="566" width="112" height="40" rx="6" fill="#57585A"/><rect x="600" y="566" width="112" height="40" rx="6" fill="#57585A"/><rect x="720" y="566" width="112" height="40" rx="6" fill="#57585A"/><rect x="840" y="566" width="112" height="40" rx="6" fill="#57585A"/><rect x="960" y="566" width="112" height="40" rx="6" fill="#57585A"/><rect x="1080" y="566" width="112" height="40" rx="6" fill="#57585A"/><rect x="1200" y="566" width="112" height="40" rx="6" fill="#57585A"/><rect x="1320" y="566" width="112" height="40" rx="6" fill="#57585A"/><rect x="1440" y="566" width="112" height="40" rx="6" fill="#57585A"/><rect x="1560" y="566" width="112" height="40" rx="6" fill="#57585A"/><rect x="1680" y="566" width="112" height="40" rx="6" fill="#57585A"/><rect x="1800" y="566" width="112" height="40" rx="6" fill="#57585A"/><rect x="1920" y="566" width="112" height="40" rx="6" fill="#57585A"/><rect x="2040" y="566" width="112" height="40" rx="6" fill="#57585A"/><rect x="0" y="612" width="112" height="40" rx="6" fill="#57585A"/><rect x="120" y="612" width="112" height="40" rx="6" fill="#57585A"/><rect x="240" y="612" width="112" height="40" rx="6" fill="#57585A"/><rect x="360" y="612" width="112" height="40" rx="6" fill="#57585A"/><rect x="480" y="612" width="112" height="40" rx="6" fill="#57585A"/><rect x="600" y="612" width="112" height="40" rx="6" fill="#57585A"/><rect x="720" y="612" width="112" height="40" rx="6" fill="#57585A"/><rect x="840" y="612" width="112" height="40" rx="6" fill="#57585A"/><rect x="960" y="612" width="112" height="40" rx="6" fill="#57585A"/><rect x="1080" y="612" width="112" height="40" rx="6" fill="#57585A"/><rect x="1200" y="612" width="112" height="40" rx="6" fill="#57585A"/><rect x="1320" y="612" width="112" height="40" rx="6" fill="#57585A"/><rect x="1440" y="612" width="112" height="40" rx="6" fill="#57585A"/><rect x="1560" y="612" width="112" height="40" rx="6" fill="#57585A"/><rect x="1680" y="612" width="112" height="40" rx="6" fill="#57585A"/><rect x="1800" y="612" width="112" height="40" rx="6" fill="#57585A"/><rect x="1920" y="612" width="112" height="40" rx="6" fill="#57585A"/><rect x="2040" y="612" width="112" height="40" rx="6" fill="#57585A"/><rect x="0" y="658" width="112" height="40" rx="6" fill="#57585A"/><rect x="120" y="658" width="112" height="40" rx="6" fill="#57585A"/><rect x="240" y="658" width="112" height="40" rx="6" fill="#57585A"/><rect x="360" y="658" width="112" height="40" rx="6" fill="#57585A"/><rect x="480" y="658" width="112" height="40" rx="6" fill="#57585A"/><rect x="600" y="658" width="112" height="40" rx="6" fill="#57585A"/><rect x="720" y="658" width="112" height="40" rx="6" fill="#57585A"/><rect x="840" y="658" width="112" height="40" rx="6" fill="#57585A"/><rect x="960" y="658" width="112" height="40" rx="6" fill="#57585A"/><rect x="1080" y="658" width="112" height="40" rx="6" fill="#57585A"/><rect x="1200" y="658" width="112" height="40" rx="6" fill="#57585A"/><rect x="1320" y="658" width="112" height="40" rx="6" fill="#57585A"/><rect x="1440" y="658" width="112" height="40" rx="6" fill="#57585A"/><rect x="1560" y="658" width="112" height="40" rx="6" fill="#57585A"/><rect x="1680" y="658" width="112" height="40" rx="6" fill="#57585A"/><rect x="1800" y="658" width="112" height="40" rx="6" fill="#57585A"/><rect x="1920" y="658" width="112" height="40" rx="6" fill="#57585A"/><rect x="2040" y="658" width="112" height="40" rx="6" fill="#57585A"/><rect x="0" y="704" width="112" height="40" rx="6" fill="#57585A"/><rect x="120" y="704" width="112" height="40" rx="6" fill="#57585A"/><rect x="240" y="704" width="112" height="40" rx="6" fill="#57585A"/><rect x="360" y="704" width="112" height="40" rx="6" fill="#57585A"/><rect x="480" y="704" width="112" height="40" rx="6" fill="#57585A"/><rect x="600" y="704" width="112" height="40" rx="6" fill="#57585A"/><rect x="720" y="704" width="112" height="40" rx="6" fill="#57585A"/><rect x="840" y="704" width="112" height="40" rx="6" fill="#57585A"/><rect x="960" y="704" width="112" height="40" rx="6" fill="#57585A"/><rect x="1080" y="704" width="112" height="40" rx="6" fill="#57585A"/><rect x="1200" y="704" width="112" height="40" rx="6" fill="#57585A"/><rect x="1320" y="704" width="112" height="40" rx="6" fill="#57585A"/><rect x="1440" y="704" width="112" height="40" rx="6" fill="#57585A"/><rect x="1560" y="704" width="112" height="40" rx="6" fill="#57585A"/><rect x="1680" y="704" width="112" height="40" rx="6" fill="#57585A"/><rect x="1800" y="704" width="112" height="40" rx="6" fill="#57585A"/><rect x="1920" y="704" width="112" height="40" rx="6" fill="#57585A"/><rect x="2040" y="704" width="112" height="40" rx="6" fill="#57585A"/><rect x="0" y="750" width="112" height="40" rx="6" fill="#57585A"/><rect x="120" y="750" width="112" height="40" rx="6" fill="#57585A"/><rect x="240" y="750" width="112" height="40" rx="6" fill="#57585A"/><rect x="360" y="750" width="112" height="40" rx="6" fill="#57585A"/><rect x="480" y="750" width="112" height="40" rx="6" fill="#57585A"/><rect x="600" y="750" width="112" height="40" rx="6" fill="#57585A"/><rect x="720" y="750" width="112" height="40" rx="6" fill="#57585A"/><rect x="840" y="750" width="112" height="40" rx="6" fill="#57585A"/><rect x="960" y="750" width="112" height="40" rx="6" fill="#57585A"/><rect x="1080" y="750" width="112" height="40" rx="6" fill="#57585A"/><rect x="1200" y="750" width="112" height="40" rx="6" fill="#57585A"/><rect x="1320" y="750" width="112" height="40" rx="6" fill="#57585A"/><rect x="1440" y="750" width="112" height="40" rx="6" fill="#57585A"/><rect x="1560" y="750" width="112" height="40" rx="6" fill="#57585A"/><rect x="1680" y="750" width="112" height="40" rx="6" fill="#57585A"/><rect x="1800" y="750" width="112" height="40" rx="6" fill="#57585A"/><rect x="1920" y="750" width="112" height="40" rx="6" fill="#57585A"/><rect x="2040" y="750" width="112" height="40" rx="6" fill="#57585A"/><rect x="0" y="796" width="112" height="40" rx="6" fill="#57585A"/><rect x="120" y="796" width="112" height="40" rx="6" fill="#57585A"/><rect x="240" y="796" width="112" height="40" rx="6" fill="#57585A"/><rect x="360" y="796" width="112" height="40" rx="6" fill="#57585A"/><rect x="480" y="796" width="112" height="40" rx="6" fill="#57585A"/><rect x="600" y="796" width="112" height="40" rx="6" fill="#57585A"/><rect x="720" y="796" width="112" height="40" rx="6" fill="#57585A"/><rect x="840" y="796" width="112" height="40" rx="6" fill="#57585A"/><rect x="960" y="796" width="112" height="40" rx="6" fill="#57585A"/><rect x="1080" y="796" width="112" height="40" rx="6" fill="#57585A"/><rect x="1200" y="796" width="112" height="40" rx="6" fill="#57585A"/><rect x="1320" y="796" width="112" height="40" rx="6" fill="#57585A"/><rect x="1440" y="796" width="112" height="40" rx="6" fill="#57585A"/><rect x="1560" y="796" width="112" height="40" rx="6" fill="#57585A"/><rect x="1680" y="796" width="112" height="40" rx="6" fill="#57585A"/><rect x="1800" y="796" width="112" height="40" rx="6" fill="#57585A"/><rect x="1920" y="796" width="112" height="40" rx="6" fill="#57585A"/><rect x="2040" y="796" width="112" height="40" rx="6" fill="#57585A"/><rect x="0" y="842" width="112" height="40" rx="6" fill="#57585A"/><rect x="120" y="842" width="112" height="40" rx="6" fill="#57585A"/><rect x="240" y="842" width="112" height="40" rx="6" fill="#57585A"/><rect x="360" y="842" width="112" height="40" rx="6" fill="#57585A"/><rect x="480" y="842" width="112" height="40" rx="6" fill="#57585A"/><rect x="600" y="842" width="112" height="40" rx="6" fill="#57585A"/><rect x="720" y="842" width="112" height="40" rx="6" fill="#57585A"/><rect x="840" y="842" width="112" height="40" rx="6" fill="#57585A"/><rect x="960" y="842" width="112" height="40" rx="6" fill="#57585A"/><rect x="1080" y="842" width="112" height="40" rx="6" fill="#57585A"/><rect x="1200" y="842" width="112" height="40" rx="6" fill="#57585A"/><rect x="1320" y="842" width="112" height="40" rx="6" fill="#57585A"/><rect x="1440" y="842" width="112" height="40" rx="6" fill="#57585A"/><rect x="1560" y="842" width="112" height="40" rx="6" fill="#57585A"/><rect x="1680" y="842" width="112" height="40" rx="6" fill="#57585A"/><rect x="1800" y="842" width="112" height="40" rx="6" fill="#57585A"/><rect x="1920" y="842" width="112" height="40" rx="6" fill="#57585A"/><rect x="2040" y="842" width="112" height="40" rx="6" fill="#57585A"/><rect x="0" y="888" width="112" height="40" rx="6" fill="#57585A"/><rect x="120" y="888" width="112" height="40" rx="6" fill="#57585A"/><rect x="240" y="888" width="112" height="40" rx="6" fill="#57585A"/><rect x="360" y="888" width="112" height="40" rx="6" fill="#57585A"/><rect x="480" y="888" width="112" height="40" rx="6" fill="#57585A"/><rect x="600" y="888" width="112" height="40" rx="6" fill="#57585A"/><rect x="720" y="888" width="112" height="40" rx="6" fill="#57585A"/><rect x="840" y="888" width="112" height="40" rx="6" fill="#57585A"/><rect x="960" y="888" width="112" height="40" rx="6" fill="#57585A"/><rect x="1080" y="888" width="112" height="40" rx="6" fill="#57585A"/><rect x="1200" y="888" width="112" height="40" rx="6" fill="#57585A"/><rect x="1320" y="888" width="112" height="40" rx="6" fill="#57585A"/><rect x="1440" y="888" width="112" height="40" rx="6" fill="#57585A"/><rect x="1560" y="888" width="112" height="40" rx="6" fill="#57585A"/><rect x="1680" y="888" width="112" height="40" rx="6" fill="#57585A"/><rect x="1800" y="888" width="112" height="40" rx="6" fill="#57585A"/><rect x="1920" y="888" width="112" height="40" rx="6" fill="#57585A"/><rect x="2040" y="888" width="112" height="40" rx="6" fill="#57585A"/></g>
    <!-- the arch -->
    <path d="M700 930 L700 420 Q1024 200 1350 420 L1350 930 L1250 930 L1250 480 Q1024 320 800 480 L800 930Z" fill="#6A6A6C"/>
    <rect x="840" y="300" width="370" height="70" rx="8" fill="#3B4A40"/>
    <text x="1025" y="350" text-anchor="middle" font-family="Georgia, serif" font-size="38" letter-spacing="8" fill="#F3EBDD">BELLFLOWER</text>
    <!-- pump house -->
    <rect x="1460" y="600" width="440" height="330" fill="#5E5A55"/><path d="M1440 610 L1680 500 L1920 610Z" fill="#3B3734"/>
    <rect x="1520" y="700" width="110" height="230" fill="#2E2A27"/><circle cx="1612" cy="820" r="6" fill="#F2C877"/>
    <rect x="1700" y="680" width="120" height="80" fill="#F2C877" opacity="0.6"/>
    <rect x="1690" y="790" width="150" height="40" rx="4" fill="#F3EBDD"/>
    <text x="1765" y="816" text-anchor="middle" font-family="monospace" font-size="15" fill="#20262B">PUMP STN. 2</text>
    <circle cx="1880" cy="640" r="14" fill="#B24A3A"/><circle cx="1880" cy="640" r="40" fill="#B24A3A" opacity="0.25" filter="url(#soft)"/>
    <rect x="1700" y="850" width="130" height="60" fill="#F3EBDD" opacity="0.9" transform="rotate(-3 1765 880)"/>
    <text x="1765" y="876" text-anchor="middle" font-family="monospace" font-size="12" fill="#20262B" transform="rotate(-3 1765 880)">REPAIR:</text>
    <text x="1765" y="896" text-anchor="middle" font-family="monospace" font-size="12" fill="#20262B" transform="rotate(-3 1765 880)">AFTER FESTIVAL</text>
    <path d="M1460 900 L1380 900 L1380 940" stroke="#3E4A50" stroke-width="20" fill="none"/>
    <!-- lamp -->
    <rect x="420" y="460" width="16" height="470" fill="#1A2025"/><path d="M398 460 L458 460 L448 400 L408 400Z" fill="#F2C877"/>
    <circle cx="428" cy="430" r="90" fill="#F2C877" opacity="0.2" filter="url(#softer)"/></g></g></svg>