<svg xmlns="http://www.w3.org/2000/svg" width="500" height="720" viewBox="0 0 500 720"><defs><filter id="cut" x="-2%" y="-2%" width="104%" height="104%"><feTurbulence type="fractalNoise" baseFrequency="0.035" numOctaves="2" seed="11" result="n"/>
       <feDisplacementMap in="SourceGraphic" in2="n" scale="1.2" xChannelSelector="R" yChannelSelector="G"/></filter></defs><g filter="url(#cut)"><g fill="#5E6A70"><rect x="180" y="660" width="54" height="44" rx="16"/><rect x="266" y="660" width="54" height="44" rx="16"/></g>
      <g fill="#D9D4CB"><ellipse cx="132" cy="480" rx="30" ry="100" transform="rotate(12 132 480)"/>
      <ellipse cx="368" cy="480" rx="30" ry="100" transform="rotate(-12 368 480)"/></g></g></svg>
<svg xmlns="http://www.w3.org/2000/svg" width="500" height="720" viewBox="0 0 500 720"><defs><filter id="cut" x="-2%" y="-2%" width="104%" height="104%"><feTurbulence type="fractalNoise" baseFrequency="0.035" numOctaves="2" seed="18" result="n"/>
       <feDisplacementMap in="SourceGraphic" in2="n" scale="1.2" xChannelSelector="R" yChannelSelector="G"/></filter></defs><g filter="url(#cut)"><path d="M154 360 Q250 330 346 360 L376 676 Q250 700 124 676Z" fill="#F1EEE8"/>
      <path d="M130 652 Q250 700 370 652" stroke="#D9D4CB" stroke-width="5" fill="none"/></g></svg>
<svg xmlns="http://www.w3.org/2000/svg" width="500" height="720" viewBox="0 0 500 720"><defs><filter id="cut" x="-2%" y="-2%" width="104%" height="104%"><feTurbulence type="fractalNoise" baseFrequency="0.035" numOctaves="2" seed="25" result="n"/>
       <feDisplacementMap in="SourceGraphic" in2="n" scale="1.2" xChannelSelector="R" yChannelSelector="G"/></filter></defs><g filter="url(#cut)"><path d="M214 380 L250 470 L286 380Z" fill="#7FA3A8"/><path d="M196 400 Q170 500 214 540" stroke="#3B474D" stroke-width="6" fill="none"/>
      <circle cx="216" cy="546" r="12" fill="#9AA6AB"/><rect x="292" y="470" width="40" height="8" fill="#9AA6AB"/></g></svg>
<svg xmlns="http://www.w3.org/2000/svg" width="500" height="720" viewBox="0 0 500 720"><defs><filter id="cut" x="-2%" y="-2%" width="104%" height="104%"><feTurbulence type="fractalNoise" baseFrequency="0.035" numOctaves="2" seed="32" result="n"/>
       <feDisplacementMap in="SourceGraphic" in2="n" scale="1.2" xChannelSelector="R" yChannelSelector="G"/></filter></defs><g filter="url(#cut)"><ellipse cx="150" cy="190" rx="70" ry="26" transform="rotate(-24 150 190)" fill="#A57D5E"/><ellipse cx="350" cy="190" rx="70" ry="26" transform="rotate(24 350 190)" fill="#A57D5E"/>
      <ellipse cx="150" cy="190" rx="44" ry="12" transform="rotate(-24 150 190)" fill="#E7C9A8"/><ellipse cx="350" cy="190" rx="44" ry="12" transform="rotate(24 350 190)" fill="#E7C9A8"/></g></svg>
<svg xmlns="http://www.w3.org/2000/svg" width="500" height="720" viewBox="0 0 500 720"><defs><filter id="cut" x="-2%" y="-2%" width="104%" height="104%"><feTurbulence type="fractalNoise" baseFrequency="0.035" numOctaves="2" seed="39" result="n"/>
       <feDisplacementMap in="SourceGraphic" in2="n" scale="1.2" xChannelSelector="R" yChannelSelector="G"/></filter></defs><g filter="url(#cut)"><ellipse cx="250" cy="236" rx="100" ry="116" fill="#B58A68"/></g></svg>
<svg xmlns="http://www.w3.org/2000/svg" width="500" height="720" viewBox="0 0 500 720"><defs><filter id="cut" x="-2%" y="-2%" width="104%" height="104%"><feTurbulence type="fractalNoise" baseFrequency="0.035" numOctaves="2" seed="46" result="n"/>
       <feDisplacementMap in="SourceGraphic" in2="n" scale="1.2" xChannelSelector="R" yChannelSelector="G"/></filter></defs><g filter="url(#cut)"><ellipse cx="250" cy="300" rx="50" ry="44" fill="#EAD6BF"/><ellipse cx="250" cy="276" rx="14" ry="10" fill="#1E1A22"/>
      <circle cx="210" cy="222" r="9" fill="#1E1A22"/><circle cx="290" cy="222" r="9" fill="#1E1A22"/>
    <circle cx="213" cy="219" r="2.6" fill="#fff"/><circle cx="293" cy="219" r="2.6" fill="#fff"/><path d="M240 316 L260 316" stroke="#1E1A22" stroke-width="4" stroke-linecap="round"/></g></svg>