<svg xmlns="http://www.w3.org/2000/svg" width="2048" height="1152" viewBox="0 0 2048 1152"><defs><filter id="cut" x="-2%" y="-2%" width="104%" height="104%"><feTurbulence type="fractalNoise" baseFrequency="0.035" numOctaves="2" seed="11" result="n"/>
       <feDisplacementMap in="SourceGraphic" in2="n" scale="1.6" xChannelSelector="R" yChannelSelector="G"/></filter></defs><g filter="url(#cut)"><path d="M-20 -20 L220 -20 Q160 400 240 1180 L-20 1180Z" fill="#9FC0C4"/></g></svg>
<svg xmlns="http://www.w3.org/2000/svg" width="2048" height="1152" viewBox="0 0 2048 1152"><defs><filter id="cut" x="-2%" y="-2%" width="104%" height="104%"><feTurbulence type="fractalNoise" baseFrequency="0.035" numOctaves="2" seed="18" result="n"/>
       <feDisplacementMap in="SourceGraphic" in2="n" scale="1.6" xChannelSelector="R" yChannelSelector="G"/></filter></defs><g filter="url(#cut)"><path d="M-20 1180 L-20 860 Q500 790 1024 812 Q1560 790 2068 850 L2068 1180Z" fill="#EEF3F1"/>
      <path d="M300 840 Q700 900 1000 830 M1150 835 Q1500 900 1800 850" stroke="#D3DDDA" stroke-width="10" fill="none"/></g></svg>
<svg xmlns="http://www.w3.org/2000/svg" width="2048" height="1152" viewBox="0 0 2048 1152"><defs><filter id="cut" x="-2%" y="-2%" width="104%" height="104%"><feTurbulence type="fractalNoise" baseFrequency="0.035" numOctaves="2" seed="25" result="n"/>
       <feDisplacementMap in="SourceGraphic" in2="n" scale="1.6" xChannelSelector="R" yChannelSelector="G"/></filter></defs><g filter="url(#cut)"><g fill="#8C9A9E"><rect x="160" y="760" width="1728" height="18" rx="9"/><rect x="200" y="760" width="14" height="80"/><rect x="1834" y="760" width="14" height="80"/></g></g></svg>