<svg xmlns="http://www.w3.org/2000/svg" width="1024" height="1024" viewBox="0 0 1024 1024"><defs><radialGradient id="brass" cx="40%" cy="35%" r="75%"><stop offset="0" stop-color="#D2AE6E"/><stop offset=".55" stop-color="#A9844B"/><stop offset="1" stop-color="#6B5230"/></radialGradient><linearGradient id="paper" x1="0" y1="0" x2="1" y2="1"><stop offset="0" stop-color="#F2E8D4"/><stop offset="1" stop-color="#E2D3B3"/></linearGradient><linearGradient id="manila" x1="0" y1="0" x2="0" y2="1"><stop offset="0" stop-color="#D9BE86"/><stop offset="1" stop-color="#C6A86D"/></linearGradient><linearGradient id="navyf" x1="0" y1="0" x2="1" y2="1"><stop offset="0" stop-color="#2C3E50"/><stop offset="1" stop-color="#1C2A3A"/></linearGradient></defs><g transform="rotate(-18 512 512)"><path d="M420,900 V260 Q420,140 520,140 Q620,140 620,260 V820 Q620,900 560,900 Q500,900 500,820 V320" fill="none" stroke="#5F6366" stroke-width="30" stroke-linecap="round"/><path d="M420,900 V260 Q420,140 520,140 Q620,140 620,260 V820 Q620,900 560,900 Q500,900 500,820 V320" fill="none" stroke="#B5B8B6" stroke-width="12" stroke-linecap="round"/><path d="M420,900 V260 Q420,140 520,140 Q620,140 620,260 V820 Q620,900 560,900 Q500,900 500,820 V320" fill="none" stroke="#F2F2EE" stroke-width="3" stroke-linecap="round" opacity=".6" transform="translate(-4 -3)"/></g></svg>