<svg xmlns="http://www.w3.org/2000/svg" width="2048" height="2048" viewBox="0 0 2048 2048"><defs><radialGradient id="brass" cx="40%" cy="35%" r="75%"><stop offset="0" stop-color="#D2AE6E"/><stop offset=".55" stop-color="#A9844B"/><stop offset="1" stop-color="#6B5230"/></radialGradient><radialGradient id="dial" cx="50%" cy="45%" r="60%"><stop offset="0" stop-color="#F2E8D4"/><stop offset=".8" stop-color="#E4D6B8"/><stop offset="1" stop-color="#CDBB97"/></radialGradient></defs><circle cx="1024" cy="1024" r="1000" fill="url(#brass)"/><circle cx="1024" cy="1024" r="1000" fill="none" stroke="#4E3B22" stroke-width="10"/><circle cx="1024" cy="1024" r="944" fill="#2A2219"/><circle cx="1024" cy="1024" r="924" fill="url(#dial)"/><circle cx="1024" cy="1024" r="880" fill="none" stroke="#182331" stroke-width="5"/><circle cx="1024" cy="1024" r="800" fill="none" stroke="#182331" stroke-width="3"/><circle cx="1024" cy="1024" r="560" fill="none" stroke="#182331" stroke-width="3" opacity=".7"/><circle cx="1024" cy="1024" r="548" fill="none" stroke="#182331" stroke-width="1.5" opacity=".6"/><line x1="1024.0" y1="144.0" x2="1024.0" y2="224.0" stroke="#182331" stroke-width="9"/><line x1="1116.0" y1="148.8" x2="1112.4" y2="182.6" stroke="#182331" stroke-width="4"/><line x1="1207.0" y1="163.2" x2="1199.9" y2="196.5" stroke="#182331" stroke-width="4"/><line x1="1295.9" y1="187.1" x2="1285.4" y2="219.4" stroke="#182331" stroke-width="4"/><line x1="1381.9" y1="220.1" x2="1368.1" y2="251.1" stroke="#182331" stroke-width="4"/><line x1="1464.0" y1="261.9" x2="1424.0" y2="331.2" stroke="#182331" stroke-width="9"/><line x1="1541.3" y1="312.1" x2="1521.3" y2="339.6" stroke="#182331" stroke-width="4"/><line x1="1612.8" y1="370.0" x2="1590.1" y2="395.3" stroke="#182331" stroke-width="4"/><line x1="1678.0" y1="435.2" x2="1652.7" y2="457.9" stroke="#182331" stroke-width="4"/><line x1="1735.9" y1="506.7" x2="1708.4" y2="526.7" stroke="#182331" stroke-width="4"/><line x1="1786.1" y1="584.0" x2="1716.8" y2="624.0" stroke="#182331" stroke-width="9"/><line x1="1827.9" y1="666.1" x2="1796.9" y2="679.9" stroke="#182331" stroke-width="4"/><line x1="1860.9" y1="752.1" x2="1828.6" y2="762.6" stroke="#182331" stroke-width="4"/><line x1="1884.8" y1="841.0" x2="1851.5" y2="848.1" stroke="#182331" stroke-width="4"/><line x1="1899.2" y1="932.0" x2="1865.4" y2="935.6" stroke="#182331" stroke-width="4"/><line x1="1904.0" y1="1024.0" x2="1824.0" y2="1024.0" stroke="#182331" stroke-width="9"/><line x1="1899.2" y1="1116.0" x2="1865.4" y2="1112.4" stroke="#182331" stroke-width="4"/><line x1="1884.8" y1="1207.0" x2="1851.5" y2="1199.9" stroke="#182331" stroke-width="4"/><line x1="1860.9" y1="1295.9" x2="1828.6" y2="1285.4" stroke="#182331" stroke-width="4"/><line x1="1827.9" y1="1381.9" x2="1796.9" y2="1368.1" stroke="#182331" stroke-width="4"/><line x1="1786.1" y1="1464.0" x2="1716.8" y2="1424.0" stroke="#182331" stroke-width="9"/><line x1="1735.9" y1="1541.3" x2="1708.4" y2="1521.3" stroke="#182331" stroke-width="4"/><line x1="1678.0" y1="1612.8" x2="1652.7" y2="1590.1" stroke="#182331" stroke-width="4"/><line x1="1612.8" y1="1678.0" x2="1590.1" y2="1652.7" stroke="#182331" stroke-width="4"/><line x1="1541.3" y1="1735.9" x2="1521.3" y2="1708.4" stroke="#182331" stroke-width="4"/><line x1="1464.0" y1="1786.1" x2="1424.0" y2="1716.8" stroke="#182331" stroke-width="9"/><line x1="1381.9" y1="1827.9" x2="1368.1" y2="1796.9" stroke="#182331" stroke-width="4"/><line x1="1295.9" y1="1860.9" x2="1285.4" y2="1828.6" stroke="#182331" stroke-width="4"/><line x1="1207.0" y1="1884.8" x2="1199.9" y2="1851.5" stroke="#182331" stroke-width="4"/><line x1="1116.0" y1="1899.2" x2="1112.4" y2="1865.4" stroke="#182331" stroke-width="4"/><line x1="1024.0" y1="1904.0" x2="1024.0" y2="1824.0" stroke="#182331" stroke-width="9"/><line x1="932.0" y1="1899.2" x2="935.6" y2="1865.4" stroke="#182331" stroke-width="4"/><line x1="841.0" y1="1884.8" x2="848.1" y2="1851.5" stroke="#182331" stroke-width="4"/><line x1="752.1" y1="1860.9" x2="762.6" y2="1828.6" stroke="#182331" stroke-width="4"/><line x1="666.1" y1="1827.9" x2="679.9" y2="1796.9" stroke="#182331" stroke-width="4"/><line x1="584.0" y1="1786.1" x2="624.0" y2="1716.8" stroke="#182331" stroke-width="9"/><line x1="506.7" y1="1735.9" x2="526.7" y2="1708.4" stroke="#182331" stroke-width="4"/><line x1="435.2" y1="1678.0" x2="457.9" y2="1652.7" stroke="#182331" stroke-width="4"/><line x1="370.0" y1="1612.8" x2="395.3" y2="1590.1" stroke="#182331" stroke-width="4"/><line x1="312.1" y1="1541.3" x2="339.6" y2="1521.3" stroke="#182331" stroke-width="4"/><line x1="261.9" y1="1464.0" x2="331.2" y2="1424.0" stroke="#182331" stroke-width="9"/><line x1="220.1" y1="1381.9" x2="251.1" y2="1368.1" stroke="#182331" stroke-width="4"/><line x1="187.1" y1="1295.9" x2="219.4" y2="1285.4" stroke="#182331" stroke-width="4"/><line x1="163.2" y1="1207.0" x2="196.5" y2="1199.9" stroke="#182331" stroke-width="4"/><line x1="148.8" y1="1116.0" x2="182.6" y2="1112.4" stroke="#182331" stroke-width="4"/><line x1="144.0" y1="1024.0" x2="224.0" y2="1024.0" stroke="#182331" stroke-width="9"/><line x1="148.8" y1="932.0" x2="182.6" y2="935.6" stroke="#182331" stroke-width="4"/><line x1="163.2" y1="841.0" x2="196.5" y2="848.1" stroke="#182331" stroke-width="4"/><line x1="187.1" y1="752.1" x2="219.4" y2="762.6" stroke="#182331" stroke-width="4"/><line x1="220.1" y1="666.1" x2="251.1" y2="679.9" stroke="#182331" stroke-width="4"/><line x1="261.9" y1="584.0" x2="331.2" y2="624.0" stroke="#182331" stroke-width="9"/><line x1="312.1" y1="506.7" x2="339.6" y2="526.7" stroke="#182331" stroke-width="4"/><line x1="370.0" y1="435.2" x2="395.3" y2="457.9" stroke="#182331" stroke-width="4"/><line x1="435.2" y1="370.0" x2="457.9" y2="395.3" stroke="#182331" stroke-width="4"/><line x1="506.7" y1="312.1" x2="526.7" y2="339.6" stroke="#182331" stroke-width="4"/><line x1="584.0" y1="261.9" x2="624.0" y2="331.2" stroke="#182331" stroke-width="9"/><line x1="666.1" y1="220.1" x2="679.9" y2="251.1" stroke="#182331" stroke-width="4"/><line x1="752.1" y1="187.1" x2="762.6" y2="219.4" stroke="#182331" stroke-width="4"/><line x1="841.0" y1="163.2" x2="848.1" y2="196.5" stroke="#182331" stroke-width="4"/><line x1="932.0" y1="148.8" x2="935.6" y2="182.6" stroke="#182331" stroke-width="4"/><text x="1024.0" y="344.0" transform="rotate(0 1024.0 344.0)" text-anchor="middle" dominant-baseline="central" font-family="EB Garamond" font-weight="500" font-size="150" fill="#182331">XII</text><text x="1364.0" y="435.1" transform="rotate(30 1364.0 435.1)" text-anchor="middle" dominant-baseline="central" font-family="EB Garamond" font-weight="500" font-size="150" fill="#182331">I</text><text x="1612.9" y="684.0" transform="rotate(60 1612.9 684.0)" text-anchor="middle" dominant-baseline="central" font-family="EB Garamond" font-weight="500" font-size="150" fill="#182331">II</text><text x="1704.0" y="1024.0" transform="rotate(90 1704.0 1024.0)" text-anchor="middle" dominant-baseline="central" font-family="EB Garamond" font-weight="500" font-size="150" fill="#182331">III</text><text x="1612.9" y="1364.0" transform="rotate(120 1612.9 1364.0)" text-anchor="middle" dominant-baseline="central" font-family="EB Garamond" font-weight="500" font-size="150" fill="#182331">IIII</text><text x="1364.0" y="1612.9" transform="rotate(150 1364.0 1612.9)" text-anchor="middle" dominant-baseline="central" font-family="EB Garamond" font-weight="500" font-size="150" fill="#182331">V</text><text x="1024.0" y="1704.0" transform="rotate(180 1024.0 1704.0)" text-anchor="middle" dominant-baseline="central" font-family="EB Garamond" font-weight="500" font-size="150" fill="#182331">VI</text><text x="684.0" y="1612.9" transform="rotate(210 684.0 1612.9)" text-anchor="middle" dominant-baseline="central" font-family="EB Garamond" font-weight="500" font-size="150" fill="#182331">VII</text><text x="435.1" y="1364.0" transform="rotate(240 435.1 1364.0)" text-anchor="middle" dominant-baseline="central" font-family="EB Garamond" font-weight="500" font-size="150" fill="#182331">VIII</text><text x="344.0" y="1024.0" transform="rotate(270 344.0 1024.0)" text-anchor="middle" dominant-baseline="central" font-family="EB Garamond" font-weight="500" font-size="150" fill="#182331">IX</text><text x="435.1" y="684.0" transform="rotate(300 435.1 684.0)" text-anchor="middle" dominant-baseline="central" font-family="EB Garamond" font-weight="500" font-size="150" fill="#182331">X</text><text x="684.0" y="435.1" transform="rotate(330 684.0 435.1)" text-anchor="middle" dominant-baseline="central" font-family="EB Garamond" font-weight="500" font-size="150" fill="#182331">XI</text><circle cx="1024" cy="1024" r="120" fill="none" stroke="#A9844B" stroke-width="6"/><circle cx="1024" cy="1024" r="96" fill="none" stroke="#A9844B" stroke-width="3"/><line x1="1014" y1="1324" x2="1014" y2="1374" stroke="#182331" stroke-width="5" opacity=".55"/><line x1="1034" y1="1324" x2="1034" y2="1374" stroke="#182331" stroke-width="5" opacity=".55"/><circle cx="1024" cy="1024" r="26" fill="#2A2219"/></svg>